<?xml version="1.0" encoding="utf-8"?>
<!-- Generator: Adobe Illustrator 24.3.0, SVG Export Plug-In . SVG Version: 6.00 Build 0)  -->
<svg version="1.1" id="Layer_1" xmlns="http://www.w3.org/2000/svg" xmlns:xlink="http://www.w3.org/1999/xlink" x="0px" y="0px"
	 viewBox="0 0 857 783" style="enable-background:new 0 0 857 783;" xml:space="preserve">
<style type="text/css">
	.st0{fill:url(#SVGID_1_);}
	.st1{fill:url(#SVGID_2_);}
</style>
<radialGradient id="SVGID_1_" cx="428.6042" cy="717.3789" r="306.4062" gradientUnits="userSpaceOnUse">
	<stop  offset="0" style="stop-color:#93278F"/>
	<stop  offset="1" style="stop-color:#662D91"/>
</radialGradient>
<path class="st0" d="M107.09,674.11v108.44H77.04l-41.21-49.26v49.26H0.21V674.11h30.05l41.21,49.26v-49.26H107.09z M224.36,782.54
	l-18.75-28.97l-18.28,28.97h-41.67l39.19-54.68l-37.8-53.76h41.05l18.43,27.26l17.97-27.26h39.35l-37.65,52.36l39.97,56.08H224.36z
	 M323.66,702.45h-31.76v-28.34h100.07v28.34h-31.76v80.09h-36.56V702.45z M518.53,769.07v13.47h-78.7V674.11h76.53v13.47h-61.04
	v33.3h54.37v13.17h-54.37v35.01H518.53z M647.1,782.54l-23.39-33.3c-2.89,0.21-5.17,0.31-6.82,0.31h-26.8v32.99H574.6V674.11h42.29
	c14.04,0,25.09,3.36,33.15,10.07c8.05,6.71,12.08,15.95,12.08,27.73c0,8.36-2.07,15.48-6.2,21.38
	c-4.13,5.88-10.01,10.17-17.66,12.85l25.71,36.41H647.1z M638.89,730.03c5.16-4.23,7.74-10.28,7.74-18.12
	c0-7.85-2.58-13.87-7.74-18.05c-5.17-4.18-12.65-6.27-22.46-6.27H590.1v48.8h26.34C626.24,736.38,633.73,734.27,638.89,730.03z
	 M793.65,684.18c8.05,6.71,12.08,15.95,12.08,27.73c0,11.77-4.03,21.01-12.08,27.72c-8.06,6.71-19.11,10.07-33.15,10.07h-26.8v32.84
	h-15.49V674.11h42.29C774.54,674.11,785.59,677.46,793.65,684.18z M782.5,729.95c5.16-4.19,7.74-10.2,7.74-18.04
	c0-7.85-2.58-13.87-7.74-18.05c-5.17-4.18-12.65-6.27-22.46-6.27H733.7v48.64h26.34C769.84,736.23,777.33,734.14,782.5,729.95z
	 M830.91,684.5c-2.63-1.54-4.7-3.63-6.22-6.27c-1.52-2.65-2.28-5.55-2.28-8.71c0-3.17,0.76-6.08,2.28-8.72
	c1.51-2.65,3.6-4.74,6.24-6.27c2.65-1.54,5.58-2.3,8.82-2.3c3.23,0,6.16,0.75,8.79,2.25c2.62,1.51,4.7,3.57,6.2,6.2
	c1.5,2.62,2.26,5.54,2.26,8.74c0,3.21-0.77,6.13-2.3,8.79c-1.54,2.66-3.63,4.76-6.27,6.3c-2.64,1.53-5.57,2.3-8.76,2.3
	C836.45,686.79,833.54,686.03,830.91,684.5z M847.3,682.58c2.29-1.34,4.09-3.17,5.41-5.49s1.99-4.88,1.99-7.69
	c0-2.81-0.65-5.35-1.94-7.64s-3.07-4.08-5.34-5.39c-2.26-1.31-4.82-1.96-7.66-1.96c-2.81,0-5.37,0.67-7.67,2.01
	c-2.3,1.34-4.11,3.16-5.41,5.46c-1.3,2.3-1.95,4.85-1.95,7.62c0,2.77,0.65,5.31,1.95,7.61c1.31,2.3,3.11,4.12,5.39,5.46
	c2.29,1.34,4.82,2.01,7.6,2.01C842.46,684.59,845.01,683.92,847.3,682.58z M834.85,678.33c-1.56-0.85-2.79-2.04-3.67-3.58
	c-0.89-1.53-1.32-3.28-1.32-5.24c0-1.96,0.44-3.71,1.32-5.25c0.88-1.53,2.1-2.73,3.67-3.57c1.57-0.85,3.35-1.28,5.34-1.28
	c1.7,0,3.25,0.36,4.66,1.08c1.4,0.72,2.5,1.68,3.28,2.89l-2.8,2.01c-1.17-1.77-2.9-2.65-5.19-2.65c-1.9,0-3.46,0.62-4.7,1.86
	c-1.24,1.24-1.86,2.88-1.86,4.9s0.62,3.65,1.86,4.9c1.24,1.24,2.81,1.86,4.7,1.86c2.29,0,4.02-0.88,5.19-2.64l2.8,1.95
	c-0.79,1.24-1.88,2.22-3.28,2.94c-1.4,0.72-2.96,1.08-4.66,1.08C838.2,679.59,836.42,679.17,834.85,678.33z"/>
<g>
	<radialGradient id="SVGID_2_" cx="396.542" cy="262.7253" r="262.7257" gradientUnits="userSpaceOnUse">
		<stop  offset="0" style="stop-color:#93278F"/>
		<stop  offset="1" style="stop-color:#662D91"/>
	</radialGradient>
	<path class="st1" d="M554.18,210.18c57.8,0,105.09-47.29,105.09-105.09S611.98,0,554.18,0c-57.8,0-105.09,47.29-105.09,105.09
		v52.55H344v-52.55C344,47.29,296.71,0,238.91,0c-57.8,0-105.09,47.29-105.09,105.09s47.29,105.09,105.09,105.09h52.55v105.09
		h-52.55c-57.8,0-105.09,47.29-105.09,105.09c0,57.8,47.29,105.09,105.09,105.09c57.8,0,105.09-47.29,105.09-105.09v-52.54h105.09
		v52.54c0,57.8,47.29,105.09,105.09,105.09c57.8,0,105.09-47.29,105.09-105.09c0-57.8-47.29-105.09-105.09-105.09h-52.55V210.18
		H554.18z M501.63,105.09c0-28.9,23.65-52.55,52.55-52.55s52.55,23.64,52.55,52.55s-23.65,52.55-52.55,52.55h-52.55V105.09z
		 M291.45,420.36c0,28.9-23.64,52.55-52.55,52.55c-28.9,0-52.55-23.64-52.55-52.55c0-28.9,23.65-52.54,52.55-52.54h52.55V420.36z
		 M291.45,157.64h-52.55c-28.9,0-52.55-23.64-52.55-52.55s23.65-52.55,52.55-52.55c28.9,0,52.55,23.64,52.55,52.55V157.64z
		 M449.09,315.27H344V210.18h105.09V315.27z M554.18,367.82c28.9,0,52.55,23.64,52.55,52.54c0,28.9-23.65,52.55-52.55,52.55
		s-52.55-23.64-52.55-52.55v-52.54H554.18z"/>
</g>
</svg>
