<?xml version="1.0" encoding="utf-8"?>
<!-- Generator: Adobe Illustrator 24.3.0, SVG Export Plug-In . SVG Version: 6.00 Build 0)  -->
<svg version="1.1" id="Layer_1" xmlns="http://www.w3.org/2000/svg" xmlns:xlink="http://www.w3.org/1999/xlink" x="0px" y="0px"
	 viewBox="0 0 525 525" style="enable-background:new 0 0 525 525;" xml:space="preserve">
<style type="text/css">
	.st0{fill:#FFFFFF;}
</style>
<g>
	<path class="st0" d="M420.18,210.18c57.8,0,105.09-47.29,105.09-105.09S477.98,0,420.18,0c-57.8,0-105.09,47.29-105.09,105.09
		v52.55H210v-52.55C210,47.29,162.71,0,104.91,0C47.11,0-0.18,47.29-0.18,105.09s47.29,105.09,105.09,105.09h52.55v105.09h-52.55
		c-57.8,0-105.09,47.29-105.09,105.09c0,57.8,47.29,105.09,105.09,105.09c57.8,0,105.09-47.29,105.09-105.09v-52.54h105.09v52.54
		c0,57.8,47.29,105.09,105.09,105.09c57.8,0,105.09-47.29,105.09-105.09c0-57.8-47.29-105.09-105.09-105.09h-52.55V210.18H420.18z
		 M367.63,105.09c0-28.9,23.65-52.55,52.55-52.55s52.55,23.64,52.55,52.55s-23.65,52.55-52.55,52.55h-52.55V105.09z M157.45,420.36
		c0,28.9-23.64,52.55-52.55,52.55c-28.9,0-52.55-23.64-52.55-52.55c0-28.9,23.65-52.54,52.55-52.54h52.55V420.36z M157.45,157.64
		h-52.55c-28.9,0-52.55-23.64-52.55-52.55s23.65-52.55,52.55-52.55c28.9,0,52.55,23.64,52.55,52.55V157.64z M315.09,315.27H210
		V210.18h105.09V315.27z M420.18,367.82c28.9,0,52.55,23.64,52.55,52.54c0,28.9-23.65,52.55-52.55,52.55s-52.55-23.64-52.55-52.55
		v-52.54H420.18z"/>
</g>
</svg>
