<svg id="Layer_1" data-name="Layer 1" xmlns="http://www.w3.org/2000/svg" viewBox="0 0 856.79 782.54"><defs><style>.cls-1{fill:#fff;}</style></defs><path class="cls-1" d="M107.09,674.11V782.54H77l-41.2-49.25v49.25H.21V674.11H30.26l41.21,49.26V674.11ZM224.36,782.54l-18.75-29-18.27,29H145.66l39.2-54.68-37.8-53.75h41.05l18.43,27.26,18-27.26h39.34l-37.64,52.36,40,56.07Zm99.3-80.09H291.91V674.11H392v28.34H360.22v80.09H323.66Zm194.87,66.62v13.47h-78.7V674.11h76.53v13.47h-61v33.31h54.37v13.17H455.32v35ZM647.1,782.54l-23.39-33.3c-2.89.21-5.17.31-6.82.31H590.1v33H574.6V674.11h42.29q21.06,0,33.16,10.07t12.08,27.73q0,12.54-6.2,21.38t-17.66,12.85L664,782.54ZM638.89,730q7.74-6.35,7.74-18.12t-7.74-18q-7.74-6.27-22.46-6.28H590.1v48.8h26.33Q631.15,736.38,638.89,730Zm154.76-45.85q12.09,10.07,12.08,27.73t-12.08,27.72q-12.09,10.08-33.15,10.07H733.7v32.84H718.21V674.11H760.5Q781.56,674.11,793.65,684.18ZM782.5,730q7.74-6.27,7.74-18t-7.74-18q-7.75-6.27-22.46-6.28H733.7v48.65H760Q774.74,736.23,782.5,730Zm48.41-45.45a16.88,16.88,0,0,1-6.22-6.28,17.82,17.82,0,0,1,0-17.44,16.76,16.76,0,0,1,6.25-6.26,17.17,17.17,0,0,1,8.81-2.31,17.46,17.46,0,0,1,8.8,2.25,16.41,16.41,0,0,1,6.19,6.21,18,18,0,0,1,0,17.53,17.59,17.59,0,0,1-23.79,6.3Zm16.39-1.92a14.67,14.67,0,0,0,5.41-5.48,15.93,15.93,0,0,0,0-15.33,14,14,0,0,0-5.34-5.39,15.78,15.78,0,0,0-15.34,0,14.57,14.57,0,0,0-5.41,5.47,15.84,15.84,0,0,0,0,15.23,14.56,14.56,0,0,0,5.39,5.46,15.45,15.45,0,0,0,15.24,0Zm-12.45-4.25a9.36,9.36,0,0,1-3.67-3.58,11.08,11.08,0,0,1,0-10.49,9.2,9.2,0,0,1,3.67-3.57,11,11,0,0,1,5.34-1.28,10.06,10.06,0,0,1,4.66,1.08,8.4,8.4,0,0,1,3.28,2.89l-2.79,2a5.84,5.84,0,0,0-5.2-2.64,6.41,6.41,0,0,0-4.7,1.85,7.38,7.38,0,0,0,0,9.8,6.34,6.34,0,0,0,4.7,1.86,5.86,5.86,0,0,0,5.2-2.64l2.79,2a8.29,8.29,0,0,1-3.28,2.94,10.18,10.18,0,0,1-4.66,1.07A11.14,11.14,0,0,1,834.85,678.33Z" transform="translate(-0.21)"/><path class="cls-1" d="M554.18,210.18c57.8,0,105.09-47.29,105.09-105.09S612,0,554.18,0,449.09,47.29,449.09,105.09v52.55H344V105.09C344,47.29,296.71,0,238.91,0S133.82,47.29,133.82,105.09s47.29,105.09,105.09,105.09h52.54V315.27H238.91c-57.8,0-105.09,47.29-105.09,105.09s47.29,105.09,105.09,105.09S344,478.16,344,420.36V367.82H449.09v52.54c0,57.8,47.29,105.09,105.09,105.09s105.09-47.29,105.09-105.09S612,315.27,554.18,315.27H501.63V210.18ZM501.63,105.09a52.55,52.55,0,1,1,52.55,52.55H501.63ZM291.45,420.36a52.55,52.55,0,1,1-52.54-52.54h52.54Zm0-262.72H238.91a52.55,52.55,0,1,1,52.54-52.55ZM449.09,315.27H344V210.18H449.09Zm105.09,52.55a52.55,52.55,0,1,1-52.55,52.54V367.82Z" transform="translate(-0.21)"/></svg>